<svg width="84" height="64" viewBox="0 0 84 64" fill="none" xmlns="http://www.w3.org/2000/svg">
<path d="M64.0678 28.4444C64.0678 29.4917 63.2179 30.3407 62.1695 30.3407C61.1211 30.3407 60.2712 29.4917 60.2712 28.4444C60.2712 27.3971 61.1211 26.5481 62.1695 26.5481C63.2179 26.5481 64.0678 27.3971 64.0678 28.4444Z" fill="#F1F1F0"/>
<path d="M70.7119 28.4444C70.7119 29.4917 69.862 30.3407 68.8136 30.3407C67.7652 30.3407 66.9153 29.4917 66.9153 28.4444C66.9153 27.3971 67.7652 26.5481 68.8136 26.5481C69.862 26.5481 70.7119 27.3971 70.7119 28.4444Z" fill="#F1F1F0"/>
<path d="M71.661 34.8444C71.661 36.2845 70.4924 37.4519 69.0508 37.4519C67.6093 37.4519 66.4407 36.2845 66.4407 34.8444C66.4407 33.4044 67.6093 32.237 69.0508 32.237C70.4924 32.237 71.661 33.4044 71.661 34.8444Z" fill="#F1F1F0"/>
<path d="M77.8305 34.6074C77.8305 35.6547 76.9806 36.5037 75.9322 36.5037C74.8838 36.5037 74.0339 35.6547 74.0339 34.6074C74.0339 33.5601 74.8838 32.7111 75.9322 32.7111C76.9806 32.7111 77.8305 33.5601 77.8305 34.6074Z" fill="#F1F1F0"/>
<path d="M78.3051 41.4815C78.3051 42.9215 77.1365 44.0889 75.6949 44.0889C74.2534 44.0889 73.0847 42.9215 73.0847 41.4815C73.0847 40.0415 74.2534 38.8741 75.6949 38.8741C77.1365 38.8741 78.3051 40.0415 78.3051 41.4815Z" fill="#F1F1F0"/>
<path d="M84 41.2444C84 42.2917 83.1501 43.1407 82.1017 43.1407C81.0533 43.1407 80.2034 42.2917 80.2034 41.2444C80.2034 40.1971 81.0533 39.3481 82.1017 39.3481C83.1501 39.3481 84 40.1971 84 41.2444Z" fill="#F1F1F0"/>
<path d="M84 47.4074C84 48.4547 83.1501 49.3037 82.1017 49.3037C81.0533 49.3037 80.2034 48.4547 80.2034 47.4074C80.2034 46.3601 81.0533 45.5111 82.1017 45.5111C83.1501 45.5111 84 46.3601 84 47.4074Z" fill="#F1F1F0"/>
<path d="M76.8814 60.2074C76.8814 60.9929 76.2439 61.6296 75.4576 61.6296C74.6713 61.6296 74.0339 60.9929 74.0339 60.2074C74.0339 59.4219 74.6713 58.7852 75.4576 58.7852C76.2439 58.7852 76.8814 59.4219 76.8814 60.2074Z" fill="#F1F1F0"/>
<path d="M83.0508 54.0444C83.0508 54.8299 82.4134 55.4667 81.6271 55.4667C80.8408 55.4667 80.2034 54.8299 80.2034 54.0444C80.2034 53.259 80.8408 52.6222 81.6271 52.6222C82.4134 52.6222 83.0508 53.259 83.0508 54.0444Z" fill="#F1F1F0"/>
<path d="M83.0508 35.0815C83.0508 35.867 82.4134 36.5037 81.6271 36.5037C80.8408 36.5037 80.2034 35.867 80.2034 35.0815C80.2034 34.296 80.8408 33.6593 81.6271 33.6593C82.4134 33.6593 83.0508 34.296 83.0508 35.0815Z" fill="#F1F1F0"/>
<path d="M76.8814 28.9185C76.8814 29.704 76.2439 30.3407 75.4576 30.3407C74.6713 30.3407 74.0339 29.704 74.0339 28.9185C74.0339 28.133 74.6713 27.4963 75.4576 27.4963C76.2439 27.4963 76.8814 28.133 76.8814 28.9185Z" fill="#F1F1F0"/>
<path d="M56.9492 14.6963C56.9492 15.4818 56.3117 16.1185 55.5254 16.1185C54.7391 16.1185 54.1017 15.4818 54.1017 14.6963C54.1017 13.9108 54.7391 13.2741 55.5254 13.2741C56.3117 13.2741 56.9492 13.9108 56.9492 14.6963Z" fill="#F1F1F0"/>
<path d="M10.9153 8.53333C10.9153 9.3188 10.2778 9.95555 9.49153 9.95555C8.70522 9.95555 8.0678 9.3188 8.0678 8.53333C8.0678 7.74786 8.70522 7.11111 9.49153 7.11111C10.2778 7.11111 10.9153 7.74786 10.9153 8.53333Z" fill="#F1F1F0"/>
<path d="M4.27119 16.1185C4.27119 16.904 3.63376 17.5407 2.84746 17.5407C2.06115 17.5407 1.42373 16.904 1.42373 16.1185C1.42373 15.333 2.06115 14.6963 2.84746 14.6963C3.63376 14.6963 4.27119 15.333 4.27119 16.1185Z" fill="#F1F1F0"/>
<path d="M17.5593 2.84444C17.5593 3.62992 16.9219 4.26667 16.1356 4.26667C15.3493 4.26667 14.7119 3.62992 14.7119 2.84444C14.7119 2.05897 15.3493 1.42222 16.1356 1.42222C16.9219 1.42222 17.5593 2.05897 17.5593 2.84444Z" fill="#F1F1F0"/>
<path d="M78.3051 48.1185C78.3051 49.5585 77.1365 50.7259 75.6949 50.7259C74.2534 50.7259 73.0847 49.5585 73.0847 48.1185C73.0847 46.6785 74.2534 45.5111 75.6949 45.5111C77.1365 45.5111 78.3051 46.6785 78.3051 48.1185Z" fill="#F1F1F0"/>
<path d="M71.661 48.1185C71.661 49.5585 70.4924 50.7259 69.0508 50.7259C67.6093 50.7259 66.4407 49.5585 66.4407 48.1185C66.4407 46.6785 67.6093 45.5111 69.0508 45.5111C70.4924 45.5111 71.661 46.6785 71.661 48.1185Z" fill="#F1F1F0"/>
<path d="M65.0169 48.1185C65.0169 49.5585 63.8483 50.7259 62.4068 50.7259C60.9652 50.7259 59.7966 49.5585 59.7966 48.1185C59.7966 46.6785 60.9652 45.5111 62.4068 45.5111C63.8483 45.5111 65.0169 46.6785 65.0169 48.1185Z" fill="#F1F1F0"/>
<path d="M77.8305 54.5185C77.8305 55.5658 76.9806 56.4148 75.9322 56.4148C74.8838 56.4148 74.0339 55.5658 74.0339 54.5185C74.0339 53.4712 74.8838 52.6222 75.9322 52.6222C76.9806 52.6222 77.8305 53.4712 77.8305 54.5185Z" fill="#F1F1F0"/>
<path d="M71.661 54.7556C71.661 56.1956 70.4924 57.363 69.0508 57.363C67.6093 57.363 66.4407 56.1956 66.4407 54.7556C66.4407 53.3155 67.6093 52.1481 69.0508 52.1481C70.4924 52.1481 71.661 53.3155 71.661 54.7556Z" fill="#F1F1F0"/>
<path d="M71.661 61.1556C71.661 62.2029 70.8111 63.0518 69.7627 63.0518C68.7143 63.0518 67.8644 62.2029 67.8644 61.1556C67.8644 60.1083 68.7143 59.2593 69.7627 59.2593C70.8111 59.2593 71.661 60.1083 71.661 61.1556Z" fill="#F1F1F0"/>
<path d="M65.0169 54.7556C65.0169 56.1956 63.8483 57.363 62.4068 57.363C60.9652 57.363 59.7966 56.1956 59.7966 54.7556C59.7966 53.3155 60.9652 52.1481 62.4068 52.1481C63.8483 52.1481 65.0169 53.3155 65.0169 54.7556Z" fill="#F1F1F0"/>
<path d="M65.0169 61.3926C65.0169 62.8326 63.8483 64 62.4068 64C60.9652 64 59.7966 62.8326 59.7966 61.3926C59.7966 59.9526 60.9652 58.7852 62.4068 58.7852C63.8483 58.7852 65.0169 59.9526 65.0169 61.3926Z" fill="#F1F1F0"/>
<path d="M71.661 41.4815C71.661 42.9215 70.4924 44.0889 69.0508 44.0889C67.6093 44.0889 66.4407 42.9215 66.4407 41.4815C66.4407 40.0415 67.6093 38.8741 69.0508 38.8741C70.4924 38.8741 71.661 40.0415 71.661 41.4815Z" fill="#F1F1F0"/>
<path d="M65.0169 41.4815C65.0169 42.9215 63.8483 44.0889 62.4068 44.0889C60.9652 44.0889 59.7966 42.9215 59.7966 41.4815C59.7966 40.0415 60.9652 38.8741 62.4068 38.8741C63.8483 38.8741 65.0169 40.0415 65.0169 41.4815Z" fill="#F1F1F0"/>
<path d="M65.0169 34.8444C65.0169 36.2845 63.8483 37.4519 62.4068 37.4519C60.9652 37.4519 59.7966 36.2845 59.7966 34.8444C59.7966 33.4044 60.9652 32.237 62.4068 32.237C63.8483 32.237 65.0169 33.4044 65.0169 34.8444Z" fill="#F1F1F0"/>
<path d="M56.9492 28.4444C56.9492 29.2299 56.3117 29.8667 55.5254 29.8667C54.7391 29.8667 54.1017 29.2299 54.1017 28.4444C54.1017 27.659 54.7391 27.0222 55.5254 27.0222C56.3117 27.0222 56.9492 27.659 56.9492 28.4444Z" fill="#F1F1F0"/>
<path d="M57.4237 21.8074C57.4237 22.8547 56.5738 23.7037 55.5254 23.7037C54.477 23.7037 53.6271 22.8547 53.6271 21.8074C53.6271 20.7601 54.477 19.9111 55.5254 19.9111C56.5738 19.9111 57.4237 20.7601 57.4237 21.8074Z" fill="#F1F1F0"/>
<path d="M58.3729 48.1185C58.3729 49.5585 57.2043 50.7259 55.7627 50.7259C54.3212 50.7259 53.1525 49.5585 53.1525 48.1185C53.1525 46.6785 54.3212 45.5111 55.7627 45.5111C57.2043 45.5111 58.3729 46.6785 58.3729 48.1185Z" fill="#F1F1F0"/>
<path d="M58.3729 54.7556C58.3729 56.1956 57.2043 57.363 55.7627 57.363C54.3212 57.363 53.1525 56.1956 53.1525 54.7556C53.1525 53.3155 54.3212 52.1481 55.7627 52.1481C57.2043 52.1481 58.3729 53.3155 58.3729 54.7556Z" fill="#F1F1F0"/>
<path d="M58.3729 61.3926C58.3729 62.8326 57.2043 64 55.7627 64C54.3212 64 53.1525 62.8326 53.1525 61.3926C53.1525 59.9526 54.3212 58.7852 55.7627 58.7852C57.2043 58.7852 58.3729 59.9526 58.3729 61.3926Z" fill="#F1F1F0"/>
<path d="M58.3729 41.4815C58.3729 42.9215 57.2043 44.0889 55.7627 44.0889C54.3212 44.0889 53.1525 42.9215 53.1525 41.4815C53.1525 40.0415 54.3212 38.8741 55.7627 38.8741C57.2043 38.8741 58.3729 40.0415 58.3729 41.4815Z" fill="#F1F1F0"/>
<path d="M58.3729 34.8444C58.3729 36.2845 57.2043 37.4519 55.7627 37.4519C54.3212 37.4519 53.1525 36.2845 53.1525 34.8444C53.1525 33.4044 54.3212 32.237 55.7627 32.237C57.2043 32.237 58.3729 33.4044 58.3729 34.8444Z" fill="#F1F1F0"/>
<path d="M51.7288 28.2074C51.7288 29.6474 50.5602 30.8148 49.1186 30.8148C47.6771 30.8148 46.5085 29.6474 46.5085 28.2074C46.5085 26.7674 47.6771 25.6 49.1186 25.6C50.5602 25.6 51.7288 26.7674 51.7288 28.2074Z" fill="#F1F1F0"/>
<path d="M51.7288 21.5704C51.7288 23.0104 50.5602 24.1778 49.1186 24.1778C47.6771 24.1778 46.5085 23.0104 46.5085 21.5704C46.5085 20.1303 47.6771 18.963 49.1186 18.963C50.5602 18.963 51.7288 20.1303 51.7288 21.5704Z" fill="#F1F1F0"/>
<path d="M51.7288 14.9333C51.7288 16.3734 50.5602 17.5407 49.1186 17.5407C47.6771 17.5407 46.5085 16.3734 46.5085 14.9333C46.5085 13.4933 47.6771 12.3259 49.1186 12.3259C50.5602 12.3259 51.7288 13.4933 51.7288 14.9333Z" fill="#F1F1F0"/>
<path d="M45.0847 14.9333C45.0847 16.3734 43.9161 17.5407 42.4746 17.5407C41.033 17.5407 39.8644 16.3734 39.8644 14.9333C39.8644 13.4933 41.033 12.3259 42.4746 12.3259C43.9161 12.3259 45.0847 13.4933 45.0847 14.9333Z" fill="#F1F1F0"/>
<path d="M45.0847 8.77037C45.0847 10.2104 43.9161 11.3778 42.4746 11.3778C41.033 11.3778 39.8644 10.2104 39.8644 8.77037C39.8644 7.33034 41.033 6.16296 42.4746 6.16296C43.9161 6.16296 45.0847 7.33034 45.0847 8.77037Z" fill="#F1F1F0"/>
<path d="M37.9661 2.37037C37.9661 3.41767 37.1162 4.26667 36.0678 4.26667C35.0194 4.26667 34.1695 3.41767 34.1695 2.37037C34.1695 1.32307 35.0194 0.474074 36.0678 0.474074C37.1162 0.474074 37.9661 1.32307 37.9661 2.37037Z" fill="#F1F1F0"/>
<path d="M44.6102 2.37037C44.6102 3.41767 43.7603 4.26667 42.7119 4.26667C41.6635 4.26667 40.8136 3.41767 40.8136 2.37037C40.8136 1.32307 41.6635 0.474074 42.7119 0.474074C43.7603 0.474074 44.6102 1.32307 44.6102 2.37037Z" fill="#F1F1F0"/>
<path d="M51.2542 8.53333C51.2542 9.58063 50.4043 10.4296 49.3559 10.4296C48.3075 10.4296 47.4576 9.58063 47.4576 8.53333C47.4576 7.48604 48.3075 6.63704 49.3559 6.63704C50.4043 6.63704 51.2542 7.48604 51.2542 8.53333Z" fill="#F1F1F0"/>
<path d="M51.7288 48.1185C51.7288 49.5585 50.5602 50.7259 49.1186 50.7259C47.6771 50.7259 46.5085 49.5585 46.5085 48.1185C46.5085 46.6785 47.6771 45.5111 49.1186 45.5111C50.5602 45.5111 51.7288 46.6785 51.7288 48.1185Z" fill="#F1F1F0"/>
<path d="M51.7288 54.7556C51.7288 56.1956 50.5602 57.363 49.1186 57.363C47.6771 57.363 46.5085 56.1956 46.5085 54.7556C46.5085 53.3155 47.6771 52.1481 49.1186 52.1481C50.5602 52.1481 51.7288 53.3155 51.7288 54.7556Z" fill="#F1F1F0"/>
<path d="M51.7288 61.3926C51.7288 62.8326 50.5602 64 49.1186 64C47.6771 64 46.5085 62.8326 46.5085 61.3926C46.5085 59.9526 47.6771 58.7852 49.1186 58.7852C50.5602 58.7852 51.7288 59.9526 51.7288 61.3926Z" fill="#F1F1F0"/>
<path d="M51.7288 41.4815C51.7288 42.9215 50.5602 44.0889 49.1186 44.0889C47.6771 44.0889 46.5085 42.9215 46.5085 41.4815C46.5085 40.0415 47.6771 38.8741 49.1186 38.8741C50.5602 38.8741 51.7288 40.0415 51.7288 41.4815Z" fill="#F1F1F0"/>
<path d="M51.7288 34.8444C51.7288 36.2845 50.5602 37.4519 49.1186 37.4519C47.6771 37.4519 46.5085 36.2845 46.5085 34.8444C46.5085 33.4044 47.6771 32.237 49.1186 32.237C50.5602 32.237 51.7288 33.4044 51.7288 34.8444Z" fill="#F1F1F0"/>
<path d="M45.0847 28.2074C45.0847 29.6474 43.9161 30.8148 42.4746 30.8148C41.033 30.8148 39.8644 29.6474 39.8644 28.2074C39.8644 26.7674 41.033 25.6 42.4746 25.6C43.9161 25.6 45.0847 26.7674 45.0847 28.2074Z" fill="#F1F1F0"/>
<path d="M45.0847 21.5704C45.0847 23.0104 43.9161 24.1778 42.4746 24.1778C41.033 24.1778 39.8644 23.0104 39.8644 21.5704C39.8644 20.1303 41.033 18.963 42.4746 18.963C43.9161 18.963 45.0847 20.1303 45.0847 21.5704Z" fill="#F1F1F0"/>
<path d="M45.0847 48.1185C45.0847 49.5585 43.9161 50.7259 42.4746 50.7259C41.033 50.7259 39.8644 49.5585 39.8644 48.1185C39.8644 46.6785 41.033 45.5111 42.4746 45.5111C43.9161 45.5111 45.0847 46.6785 45.0847 48.1185Z" fill="#F1F1F0"/>
<path d="M45.0847 54.7556C45.0847 56.1956 43.9161 57.363 42.4746 57.363C41.033 57.363 39.8644 56.1956 39.8644 54.7556C39.8644 53.3155 41.033 52.1481 42.4746 52.1481C43.9161 52.1481 45.0847 53.3155 45.0847 54.7556Z" fill="#F1F1F0"/>
<path d="M45.0847 61.3926C45.0847 62.8326 43.9161 64 42.4746 64C41.033 64 39.8644 62.8326 39.8644 61.3926C39.8644 59.9526 41.033 58.7852 42.4746 58.7852C43.9161 58.7852 45.0847 59.9526 45.0847 61.3926Z" fill="#F1F1F0"/>
<path d="M45.0847 41.4815C45.0847 42.9215 43.9161 44.0889 42.4746 44.0889C41.033 44.0889 39.8644 42.9215 39.8644 41.4815C39.8644 40.0415 41.033 38.8741 42.4746 38.8741C43.9161 38.8741 45.0847 40.0415 45.0847 41.4815Z" fill="#F1F1F0"/>
<path d="M45.0847 34.8444C45.0847 36.2845 43.9161 37.4519 42.4746 37.4519C41.033 37.4519 39.8644 36.2845 39.8644 34.8444C39.8644 33.4044 41.033 32.237 42.4746 32.237C43.9161 32.237 45.0847 33.4044 45.0847 34.8444Z" fill="#F1F1F0"/>
<path d="M38.4407 14.9333C38.4407 16.3734 37.2721 17.5407 35.8305 17.5407C34.389 17.5407 33.2203 16.3734 33.2203 14.9333C33.2203 13.4933 34.389 12.3259 35.8305 12.3259C37.2721 12.3259 38.4407 13.4933 38.4407 14.9333Z" fill="#F1F1F0"/>
<path d="M38.4407 8.77037C38.4407 10.2104 37.2721 11.3778 35.8305 11.3778C34.389 11.3778 33.2203 10.2104 33.2203 8.77037C33.2203 7.33034 34.389 6.16296 35.8305 6.16296C37.2721 6.16296 38.4407 7.33034 38.4407 8.77037Z" fill="#F1F1F0"/>
<path d="M38.4407 28.2074C38.4407 29.6474 37.2721 30.8148 35.8305 30.8148C34.389 30.8148 33.2203 29.6474 33.2203 28.2074C33.2203 26.7674 34.389 25.6 35.8305 25.6C37.2721 25.6 38.4407 26.7674 38.4407 28.2074Z" fill="#F1F1F0"/>
<path d="M38.4407 21.5704C38.4407 23.0104 37.2721 24.1778 35.8305 24.1778C34.389 24.1778 33.2203 23.0104 33.2203 21.5704C33.2203 20.1303 34.389 18.963 35.8305 18.963C37.2721 18.963 38.4407 20.1303 38.4407 21.5704Z" fill="#F1F1F0"/>
<path d="M38.4407 48.1185C38.4407 49.5585 37.2721 50.7259 35.8305 50.7259C34.389 50.7259 33.2203 49.5585 33.2203 48.1185C33.2203 46.6785 34.389 45.5111 35.8305 45.5111C37.2721 45.5111 38.4407 46.6785 38.4407 48.1185Z" fill="#F1F1F0"/>
<path d="M38.4407 54.7556C38.4407 56.1956 37.2721 57.363 35.8305 57.363C34.389 57.363 33.2203 56.1956 33.2203 54.7556C33.2203 53.3155 34.389 52.1481 35.8305 52.1481C37.2721 52.1481 38.4407 53.3155 38.4407 54.7556Z" fill="#F1F1F0"/>
<path d="M38.4407 61.3926C38.4407 62.8326 37.2721 64 35.8305 64C34.389 64 33.2203 62.8326 33.2203 61.3926C33.2203 59.9526 34.389 58.7852 35.8305 58.7852C37.2721 58.7852 38.4407 59.9526 38.4407 61.3926Z" fill="#F1F1F0"/>
<path d="M38.4407 41.4815C38.4407 42.9215 37.2721 44.0889 35.8305 44.0889C34.389 44.0889 33.2203 42.9215 33.2203 41.4815C33.2203 40.0415 34.389 38.8741 35.8305 38.8741C37.2721 38.8741 38.4407 40.0415 38.4407 41.4815Z" fill="#F1F1F0"/>
<path d="M38.4407 34.8444C38.4407 36.2845 37.2721 37.4519 35.8305 37.4519C34.389 37.4519 33.2203 36.2845 33.2203 34.8444C33.2203 33.4044 34.389 32.237 35.8305 32.237C37.2721 32.237 38.4407 33.4044 38.4407 34.8444Z" fill="#F1F1F0"/>
<path d="M31.7966 2.60741C31.7966 4.04744 30.628 5.21481 29.1864 5.21481C27.7449 5.21481 26.5763 4.04744 26.5763 2.60741C26.5763 1.16738 27.7449 0 29.1864 0C30.628 0 31.7966 1.16738 31.7966 2.60741Z" fill="#F1F1F0"/>
<path d="M31.7966 14.9333C31.7966 16.3734 30.628 17.5407 29.1864 17.5407C27.7449 17.5407 26.5763 16.3734 26.5763 14.9333C26.5763 13.4933 27.7449 12.3259 29.1864 12.3259C30.628 12.3259 31.7966 13.4933 31.7966 14.9333Z" fill="#F1F1F0"/>
<path d="M31.7966 8.77037C31.7966 10.2104 30.628 11.3778 29.1864 11.3778C27.7449 11.3778 26.5763 10.2104 26.5763 8.77037C26.5763 7.33034 27.7449 6.16296 29.1864 6.16296C30.628 6.16296 31.7966 7.33034 31.7966 8.77037Z" fill="#F1F1F0"/>
<path d="M31.7966 28.2074C31.7966 29.6474 30.628 30.8148 29.1864 30.8148C27.7449 30.8148 26.5763 29.6474 26.5763 28.2074C26.5763 26.7674 27.7449 25.6 29.1864 25.6C30.628 25.6 31.7966 26.7674 31.7966 28.2074Z" fill="#F1F1F0"/>
<path d="M31.7966 21.5704C31.7966 23.0104 30.628 24.1778 29.1864 24.1778C27.7449 24.1778 26.5763 23.0104 26.5763 21.5704C26.5763 20.1303 27.7449 18.963 29.1864 18.963C30.628 18.963 31.7966 20.1303 31.7966 21.5704Z" fill="#F1F1F0"/>
<path d="M31.7966 48.1185C31.7966 49.5585 30.628 50.7259 29.1864 50.7259C27.7449 50.7259 26.5763 49.5585 26.5763 48.1185C26.5763 46.6785 27.7449 45.5111 29.1864 45.5111C30.628 45.5111 31.7966 46.6785 31.7966 48.1185Z" fill="#F1F1F0"/>
<path d="M31.7966 54.7556C31.7966 56.1956 30.628 57.363 29.1864 57.363C27.7449 57.363 26.5763 56.1956 26.5763 54.7556C26.5763 53.3155 27.7449 52.1481 29.1864 52.1481C30.628 52.1481 31.7966 53.3155 31.7966 54.7556Z" fill="#F1F1F0"/>
<path d="M31.7966 61.3926C31.7966 62.8326 30.628 64 29.1864 64C27.7449 64 26.5763 62.8326 26.5763 61.3926C26.5763 59.9526 27.7449 58.7852 29.1864 58.7852C30.628 58.7852 31.7966 59.9526 31.7966 61.3926Z" fill="#F1F1F0"/>
<path d="M31.7966 41.4815C31.7966 42.9215 30.628 44.0889 29.1864 44.0889C27.7449 44.0889 26.5763 42.9215 26.5763 41.4815C26.5763 40.0415 27.7449 38.8741 29.1864 38.8741C30.628 38.8741 31.7966 40.0415 31.7966 41.4815Z" fill="#F1F1F0"/>
<path d="M31.7966 34.8444C31.7966 36.2845 30.628 37.4519 29.1864 37.4519C27.7449 37.4519 26.5763 36.2845 26.5763 34.8444C26.5763 33.4044 27.7449 32.237 29.1864 32.237C30.628 32.237 31.7966 33.4044 31.7966 34.8444Z" fill="#F1F1F0"/>
<path d="M24.2034 2.37037C24.2034 3.41767 23.3535 4.26667 22.3051 4.26667C21.2567 4.26667 20.4068 3.41767 20.4068 2.37037C20.4068 1.32307 21.2567 0.474074 22.3051 0.474074C23.3535 0.474074 24.2034 1.32307 24.2034 2.37037Z" fill="#F1F1F0"/>
<path d="M25.1525 14.9333C25.1525 16.3734 23.9839 17.5407 22.5424 17.5407C21.1008 17.5407 19.9322 16.3734 19.9322 14.9333C19.9322 13.4933 21.1008 12.3259 22.5424 12.3259C23.9839 12.3259 25.1525 13.4933 25.1525 14.9333Z" fill="#F1F1F0"/>
<path d="M25.1525 8.77037C25.1525 10.2104 23.9839 11.3778 22.5424 11.3778C21.1008 11.3778 19.9322 10.2104 19.9322 8.77037C19.9322 7.33034 21.1008 6.16296 22.5424 6.16296C23.9839 6.16296 25.1525 7.33034 25.1525 8.77037Z" fill="#F1F1F0"/>
<path d="M25.1525 28.2074C25.1525 29.6474 23.9839 30.8148 22.5424 30.8148C21.1008 30.8148 19.9322 29.6474 19.9322 28.2074C19.9322 26.7674 21.1008 25.6 22.5424 25.6C23.9839 25.6 25.1525 26.7674 25.1525 28.2074Z" fill="#F1F1F0"/>
<path d="M25.1525 21.5704C25.1525 23.0104 23.9839 24.1778 22.5424 24.1778C21.1008 24.1778 19.9322 23.0104 19.9322 21.5704C19.9322 20.1303 21.1008 18.963 22.5424 18.963C23.9839 18.963 25.1525 20.1303 25.1525 21.5704Z" fill="#F1F1F0"/>
<path d="M25.1525 48.1185C25.1525 49.5585 23.9839 50.7259 22.5424 50.7259C21.1008 50.7259 19.9322 49.5585 19.9322 48.1185C19.9322 46.6785 21.1008 45.5111 22.5424 45.5111C23.9839 45.5111 25.1525 46.6785 25.1525 48.1185Z" fill="#F1F1F0"/>
<path d="M25.1525 54.7556C25.1525 56.1956 23.9839 57.363 22.5424 57.363C21.1008 57.363 19.9322 56.1956 19.9322 54.7556C19.9322 53.3155 21.1008 52.1481 22.5424 52.1481C23.9839 52.1481 25.1525 53.3155 25.1525 54.7556Z" fill="#F1F1F0"/>
<path d="M24.678 61.1556C24.678 62.2029 23.8281 63.0518 22.7797 63.0518C21.7313 63.0518 20.8814 62.2029 20.8814 61.1556C20.8814 60.1083 21.7313 59.2593 22.7797 59.2593C23.8281 59.2593 24.678 60.1083 24.678 61.1556Z" fill="#F1F1F0"/>
<path d="M25.1525 41.4815C25.1525 42.9215 23.9839 44.0889 22.5424 44.0889C21.1008 44.0889 19.9322 42.9215 19.9322 41.4815C19.9322 40.0415 21.1008 38.8741 22.5424 38.8741C23.9839 38.8741 25.1525 40.0415 25.1525 41.4815Z" fill="#F1F1F0"/>
<path d="M25.1525 34.8444C25.1525 36.2845 23.9839 37.4519 22.5424 37.4519C21.1008 37.4519 19.9322 36.2845 19.9322 34.8444C19.9322 33.4044 21.1008 32.237 22.5424 32.237C23.9839 32.237 25.1525 33.4044 25.1525 34.8444Z" fill="#F1F1F0"/>
<path d="M18.5085 14.9333C18.5085 16.3734 17.3399 17.5407 15.8983 17.5407C14.4567 17.5407 13.2881 16.3734 13.2881 14.9333C13.2881 13.4933 14.4567 12.3259 15.8983 12.3259C17.3399 12.3259 18.5085 13.4933 18.5085 14.9333Z" fill="#F1F1F0"/>
<path d="M18.5085 8.77037C18.5085 10.2104 17.3399 11.3778 15.8983 11.3778C14.4567 11.3778 13.2881 10.2104 13.2881 8.77037C13.2881 7.33034 14.4567 6.16296 15.8983 6.16296C17.3399 6.16296 18.5085 7.33034 18.5085 8.77037Z" fill="#F1F1F0"/>
<path d="M18.5085 28.2074C18.5085 29.6474 17.3399 30.8148 15.8983 30.8148C14.4567 30.8148 13.2881 29.6474 13.2881 28.2074C13.2881 26.7674 14.4567 25.6 15.8983 25.6C17.3399 25.6 18.5085 26.7674 18.5085 28.2074Z" fill="#F1F1F0"/>
<path d="M18.5085 21.5704C18.5085 23.0104 17.3399 24.1778 15.8983 24.1778C14.4567 24.1778 13.2881 23.0104 13.2881 21.5704C13.2881 20.1303 14.4567 18.963 15.8983 18.963C17.3399 18.963 18.5085 20.1303 18.5085 21.5704Z" fill="#F1F1F0"/>
<path d="M18.5085 48.1185C18.5085 49.5585 17.3399 50.7259 15.8983 50.7259C14.4567 50.7259 13.2881 49.5585 13.2881 48.1185C13.2881 46.6785 14.4567 45.5111 15.8983 45.5111C17.3399 45.5111 18.5085 46.6785 18.5085 48.1185Z" fill="#F1F1F0"/>
<path d="M18.5085 54.7556C18.5085 56.1956 17.3399 57.363 15.8983 57.363C14.4567 57.363 13.2881 56.1956 13.2881 54.7556C13.2881 53.3155 14.4567 52.1481 15.8983 52.1481C17.3399 52.1481 18.5085 53.3155 18.5085 54.7556Z" fill="#F1F1F0"/>
<path d="M18.5085 41.4815C18.5085 42.9215 17.3399 44.0889 15.8983 44.0889C14.4567 44.0889 13.2881 42.9215 13.2881 41.4815C13.2881 40.0415 14.4567 38.8741 15.8983 38.8741C17.3399 38.8741 18.5085 40.0415 18.5085 41.4815Z" fill="#F1F1F0"/>
<path d="M18.5085 34.8444C18.5085 36.2845 17.3399 37.4519 15.8983 37.4519C14.4567 37.4519 13.2881 36.2845 13.2881 34.8444C13.2881 33.4044 14.4567 32.237 15.8983 32.237C17.3399 32.237 18.5085 33.4044 18.5085 34.8444Z" fill="#F1F1F0"/>
<path d="M11.8644 14.9333C11.8644 16.3734 10.6958 17.5407 9.25424 17.5407C7.81268 17.5407 6.64407 16.3734 6.64407 14.9333C6.64407 13.4933 7.81268 12.3259 9.25424 12.3259C10.6958 12.3259 11.8644 13.4933 11.8644 14.9333Z" fill="#F1F1F0"/>
<path d="M11.8644 28.2074C11.8644 29.6474 10.6958 30.8148 9.25424 30.8148C7.81268 30.8148 6.64407 29.6474 6.64407 28.2074C6.64407 26.7674 7.81268 25.6 9.25424 25.6C10.6958 25.6 11.8644 26.7674 11.8644 28.2074Z" fill="#F1F1F0"/>
<path d="M11.8644 21.5704C11.8644 23.0104 10.6958 24.1778 9.25424 24.1778C7.81268 24.1778 6.64407 23.0104 6.64407 21.5704C6.64407 20.1303 7.81268 18.963 9.25424 18.963C10.6958 18.963 11.8644 20.1303 11.8644 21.5704Z" fill="#F1F1F0"/>
<path d="M11.8644 48.1185C11.8644 49.5585 10.6958 50.7259 9.25424 50.7259C7.81268 50.7259 6.64407 49.5585 6.64407 48.1185C6.64407 46.6785 7.81268 45.5111 9.25424 45.5111C10.6958 45.5111 11.8644 46.6785 11.8644 48.1185Z" fill="#F1F1F0"/>
<path d="M11.3898 54.5185C11.3898 55.5658 10.5399 56.4148 9.49153 56.4148C8.44312 56.4148 7.59322 55.5658 7.59322 54.5185C7.59322 53.4712 8.44312 52.6222 9.49153 52.6222C10.5399 52.6222 11.3898 53.4712 11.3898 54.5185Z" fill="#F1F1F0"/>
<path d="M4.27119 48.1185C4.27119 49.0349 3.52752 49.7778 2.61017 49.7778C1.69282 49.7778 0.949153 49.0349 0.949153 48.1185C0.949153 47.2021 1.69282 46.4593 2.61017 46.4593C3.52752 46.4593 4.27119 47.2021 4.27119 48.1185Z" fill="#F1F1F0"/>
<path d="M18.5085 60.6815C18.5085 61.467 17.871 62.1037 17.0847 62.1037C16.2984 62.1037 15.661 61.467 15.661 60.6815C15.661 59.896 16.2984 59.2593 17.0847 59.2593C17.871 59.2593 18.5085 59.896 18.5085 60.6815Z" fill="#F1F1F0"/>
<path d="M11.8644 41.4815C11.8644 42.9215 10.6958 44.0889 9.25424 44.0889C7.81268 44.0889 6.64407 42.9215 6.64407 41.4815C6.64407 40.0415 7.81268 38.8741 9.25424 38.8741C10.6958 38.8741 11.8644 40.0415 11.8644 41.4815Z" fill="#F1F1F0"/>
<path d="M11.8644 34.8444C11.8644 36.2845 10.6958 37.4519 9.25424 37.4519C7.81268 37.4519 6.64407 36.2845 6.64407 34.8444C6.64407 33.4044 7.81268 32.237 9.25424 32.237C10.6958 32.237 11.8644 33.4044 11.8644 34.8444Z" fill="#F1F1F0"/>
<path d="M5.22034 28.2074C5.22034 29.6474 4.05173 30.8148 2.61017 30.8148C1.16861 30.8148 0 29.6474 0 28.2074C0 26.7674 1.16861 25.6 2.61017 25.6C4.05173 25.6 5.22034 26.7674 5.22034 28.2074Z" fill="#F1F1F0"/>
<path d="M4.74576 21.8074C4.74576 22.8547 3.89586 23.7037 2.84746 23.7037C1.79905 23.7037 0.949153 22.8547 0.949153 21.8074C0.949153 20.7601 1.79905 19.9111 2.84746 19.9111C3.89586 19.9111 4.74576 20.7601 4.74576 21.8074Z" fill="#F1F1F0"/>
<path d="M5.22034 41.4815C5.22034 42.9215 4.05173 44.0889 2.61017 44.0889C1.16861 44.0889 0 42.9215 0 41.4815C0 40.0415 1.16861 38.8741 2.61017 38.8741C4.05173 38.8741 5.22034 40.0415 5.22034 41.4815Z" fill="#F1F1F0"/>
<path d="M5.22034 34.8444C5.22034 36.2845 4.05173 37.4519 2.61017 37.4519C1.16861 37.4519 0 36.2845 0 34.8444C0 33.4044 1.16861 32.237 2.61017 32.237C4.05173 32.237 5.22034 33.4044 5.22034 34.8444Z" fill="#F1F1F0"/>
</svg>
